<svg viewBox="0 0 1200 1200" fill="none" xmlns="http://www.w3.org/2000/svg">
<!-- <rect width="100%" height="100%"/> -->
<path d="M525.277 632.09V622.449H537.547V632.09C537.547 639.919 535.151 645.995 530.36 650.319C525.569 654.526 518.382 656.629 508.8 656.629C499.218 656.629 491.973 654.526 487.065 650.319C482.158 645.995 479.704 639.919 479.704 632.09V561.977C479.704 554.148 482.099 548.13 486.89 543.923C491.681 539.599 498.868 537.438 508.45 537.438C518.032 537.438 525.277 539.599 530.185 543.923C535.093 548.13 537.547 554.148 537.547 561.977V600.539H491.973V632.09C491.973 641.438 497.524 646.112 508.625 646.112C519.726 646.112 525.277 641.438 525.277 632.09ZM491.973 561.977V590.022H525.277V561.977C525.277 552.629 519.726 547.955 508.625 547.955C497.524 547.955 491.973 552.629 491.973 561.977Z" fill="#F15A25"/>
<path d="M612.918 632.09V622.449H625.187V632.09C625.187 639.919 622.792 645.995 618.001 650.319C613.21 654.526 606.023 656.629 596.441 656.629C586.859 656.629 579.614 654.526 574.706 650.319C569.798 645.995 567.345 639.919 567.345 632.09V561.977C567.345 554.148 569.74 548.13 574.531 543.923C579.322 539.599 586.509 537.438 596.091 537.438C605.673 537.438 612.918 539.599 617.826 543.923C622.734 548.13 625.187 554.148 625.187 561.977V578.629H612.918V561.977C612.918 552.629 607.367 547.955 596.266 547.955C585.165 547.955 579.614 552.629 579.614 561.977V632.09C579.614 641.438 585.165 646.112 596.266 646.112C607.367 646.112 612.918 641.438 612.918 632.09ZM710.24 654H704.982L700.424 642.782C697.97 646.989 694.757 650.378 690.784 652.948C686.811 655.402 682.429 656.629 677.638 656.629C660.811 656.629 652.397 648.449 652.397 632.09V614.562C652.397 598.202 660.811 590.022 677.638 590.022H697.97V561.276C697.97 557.069 696.627 553.797 693.939 551.46C691.251 549.123 687.278 547.955 682.02 547.955C671.62 547.955 666.42 552.395 666.42 561.276V571.618H654.15V561.977C654.15 554.148 656.429 548.13 660.986 543.923C665.66 539.599 672.671 537.438 682.02 537.438C691.368 537.438 698.379 539.599 703.054 543.923C707.845 548.13 710.24 554.148 710.24 561.977V654ZM697.97 600.539H677.638C672.73 600.539 669.341 601.766 667.471 604.22C665.602 606.674 664.667 610.121 664.667 614.562V632.09C664.667 636.53 665.602 639.977 667.471 642.431C669.341 644.885 672.73 646.112 677.638 646.112C682.546 646.112 687.103 644.243 691.31 640.503C695.517 636.647 697.737 632.849 697.97 629.11V600.539ZM799.283 632.09C799.283 648.449 789.409 656.629 769.661 656.629C749.912 656.629 740.038 648.449 740.038 632.09V617.191H752.308V632.791C752.308 636.998 753.769 640.27 756.69 642.607C759.611 644.944 763.935 646.112 769.661 646.112C775.387 646.112 779.71 644.944 782.632 642.607C785.553 640.27 787.014 637.115 787.014 633.141C787.014 629.052 786.546 625.838 785.611 623.501C784.793 621.047 783.041 618.476 780.353 615.789L749.503 585.64C745.881 582.018 743.368 578.512 741.966 575.123C740.681 571.618 740.038 567.236 740.038 561.977C740.038 554.148 742.434 548.13 747.225 543.923C752.133 539.599 759.494 537.438 769.31 537.438C788.124 537.438 797.531 545.617 797.531 561.977V576.876H785.261V561.276C785.261 557.069 783.859 553.797 781.054 551.46C778.366 549.123 774.276 547.955 768.784 547.955C763.292 547.955 759.144 549.123 756.339 551.46C753.652 553.797 752.308 557.011 752.308 561.101C752.308 565.191 752.717 568.404 753.535 570.741C754.353 573.078 756.164 575.532 758.969 578.103L790.344 608.251C793.733 611.991 796.07 615.613 797.355 619.119C798.641 622.508 799.283 626.831 799.283 632.09ZM843.112 654H830.842V540.067H843.112V590.899H877.642V540.067H889.912V654H877.642V601.415H843.112V654Z" fill="#434343"/>
<path d="M319.211 660.646C325.275 666.71 332.474 671.52 340.397 674.802C348.32 678.084 356.651 679.544 365.227 679.544C373.803 679.544 382.456 678.084 390.379 674.802C398.302 671.52 405.501 666.71 411.565 660.646C417.629 654.582 422.439 647.383 425.721 639.46C429.003 631.537 430.692 623.045 430.692 614.469C430.692 605.893 429.003 597.401 425.721 589.478C422.439 581.555 417.629 574.356 411.565 568.292L365.388 614.469L319.211 660.646Z" fill="#F15A25"/>
<path d="M431.531 539.178C419.284 526.932 402.674 520.051 385.354 520.051C368.034 520.051 351.424 526.932 339.177 539.178C326.93 551.425 320.05 568.036 320.05 585.355C320.05 602.675 326.93 619.286 339.177 631.533L385.354 585.355L431.531 539.178Z" fill="#F15A25"/>
</svg>
